Coordinates
version=1
nRows=8
nColumns=36
inDegrees=yes

Units are S.I. units (second, meters, Newtons, ...)
If the header above contains a line with 'inDegrees', this indicates whether rotational values are in degrees (yes) or radians (no).

endheader
time	pelvis_tilt	pelvis_list	pelvis_rotation	pelvis_tx	pelvis_ty	pelvis_tz	hip_flexion_r	hip_adduction_r	hip_rotation_r	knee_angle_r	knee_angle_r_beta	ankle_angle_r	subtalar_angle_r	mtp_angle_r	hip_flexion_l	hip_adduction_l	hip_rotation_l	knee_angle_l	knee_angle_l_beta	ankle_angle_l	subtalar_angle_l	mtp_angle_l	lumbar_extension	lumbar_bending	lumbar_rotation	arm_flex_r	arm_add_r	arm_rot_r	elbow_flex_r	pro_sup_r	arm_flex_l	arm_add_l	arm_rot_l	elbow_flex_l	pro_sup_l
      2.83333330	    -12.98798896	      1.25914556	      3.52541768	      0.51529377	      1.58299324	     -0.04252169	      3.24152784	    -10.15987292	    -24.81887279	      3.74679964	      0.06539399	    -23.95649651	      1.22330241	     -7.49999987	      4.73679763	     -7.80232538	    -20.67591232	      7.98839189	      0.13942374	    -21.98551605	     -0.42932122	     -7.49999987	     13.38215039	     -2.13487988	      1.03800645	    163.63175697	     -9.08683748	     51.01880000	     39.31227615	     88.86553895	    168.93607787	    -11.72520239	     78.25487578	     38.25482313	     79.23388909
      2.83750000	    -12.90407690	      1.44685977	      3.43554092	      0.51612044	      1.58495965	     -0.04263300	      3.15760319	    -10.41784542	    -24.61466030	      3.62454209	      0.06326019	    -24.12302995	      1.30492334	     -7.49999987	      4.59177950	     -7.61271837	    -20.66212233	      7.74389540	      0.13515647	    -22.19161820	     -0.84719341	     -7.49999987	     13.30357878	     -2.26905002	      1.08087374	    163.60665037	     -9.00399569	     50.97948185	     39.11719663	     81.87653231	    169.01380489	    -11.71889026	     78.22428538	     38.09645845	     74.09831588
      2.84166670	    -13.32985827	      1.50891296	      3.22996118	      0.51613873	      1.58413356	     -0.04046496	      3.82274256	    -10.46663712	    -24.78973937	      3.72692240	      0.06504707	    -24.92482019	      0.93178354	     -7.49999987	      5.08124631	     -7.61419905	    -20.56515559	      7.80961034	      0.13630341	    -22.02364410	     -0.75177583	     -7.49999987	     13.99459385	     -2.32184485	      1.19984409	    162.98963510	     -9.38855490	     51.02622614	     40.23643983	     80.30355923	    168.83301425	    -12.19330872	     78.14210674	     39.38369157	     72.98721516
      2.84583330	    -12.86594181	      1.36536042	      3.15692476	      0.51590062	      1.58490444	     -0.04044091	      3.57435546	    -10.19935704	    -24.92349017	      3.81325509	      0.06655386	    -25.13405695	      0.37144036	     -7.49999987	      4.58399650	     -7.81375701	    -20.42219078	      7.76614401	      0.13554478	    -21.25212440	     -0.65142782	     -7.49999987	     13.29109405	     -2.09802697	      1.45407239	    164.03456446	     -9.03012724	     52.40304900	     38.39796785	     86.64967112	    169.36263995	    -11.80903852	     78.99706994	     37.91690715	     77.74393664
      2.85000000	    -12.74083215	      1.18808687	      2.87874919	      0.51639661	      1.58374182	     -0.04192018	      3.60726632	    -10.03979453	    -25.38318223	      3.73592996	      0.06520428	    -26.06295237	     -0.22672302	     -7.49999987	      4.34619634	     -7.98668889	    -20.45762493	      7.58026554	      0.13230059	    -20.96040668	     -0.92935688	     -7.49999987	     13.27787076	     -1.81285036	      1.58674068	    163.72622637	     -8.98223925	     52.11463255	     38.32936450	     86.10334459	    169.27002414	    -11.78167297	     78.93581050	     38.00299875	     77.38666587
      2.85416670	    -12.71802205	      0.85661282	      2.93578465	      0.51874009	      1.58824125	     -0.04210946	      3.68075667	     -9.66309803	    -25.55475268	      3.74471587	      0.06535762	    -27.38783651	     -0.61270346	     -7.49999987	      4.25813778	     -8.29484557	    -20.86766749	      7.40052529	      0.12916353	    -21.02384712	     -1.42356277	     -7.49999987	     13.30081597	     -1.46692561	      1.52908481	    163.63153544	     -9.21623735	     51.98524002	     38.46977649	     86.28739996	    169.42582554	    -11.97247776	     78.90160095	     38.13499639	     77.58296862
      2.85833330	    -12.62952644	      0.82856456	      2.88781179	      0.51890545	      1.58937652	     -0.04169361	      3.67857197	     -9.60881072	    -25.61475098	      3.54387482	      0.06185228	    -28.28475147	     -0.44759266	     -7.49999987	      4.08370300	     -8.27957227	    -21.25203706	      7.20480465	      0.12574756	    -21.66120540	     -1.68686509	     -7.49999987	     13.29550379	     -1.40247810	      1.50458227	    163.15585694	     -9.42971206	     51.66612862	     39.10876419	     83.95725067	    169.41557105	    -12.43737436	     78.69283127	     38.91619048	     75.84670001
      2.86250000	    -12.71345383	      0.90636361	      2.89166173	      0.51845216	      1.58974616	     -0.04364736	      3.75392255	     -9.72695979	    -25.53360846	      3.37489338	      0.05890300	    -28.35851933	     -0.21402999	     -7.49999987	      4.33203173	     -8.08233197	    -21.48404475	      7.35450920	      0.12836040	    -21.48623265	     -1.93080180	     -7.49999987	     13.53279964	     -1.45622948	      1.42962456	    162.73404135	     -9.75075908	     51.63567771	     39.81060768	     83.22379989	    169.31351842	    -12.71509365	     78.60170547	     39.64565126	     75.31502315
